<?xml version="1.0" encoding="UTF-8" standalone="no"?>
<svg
   xmlns:dc="http://purl.org/dc/elements/1.1/"
   xmlns:cc="http://creativecommons.org/ns#"
   xmlns:rdf="http://www.w3.org/1999/02/22-rdf-syntax-ns#"
   xmlns:svg="http://www.w3.org/2000/svg"
   xmlns="http://www.w3.org/2000/svg"
   xmlns:xlink="http://www.w3.org/1999/xlink"
   id="svg8"
   version="1.1"
   viewBox="0 0 120 35"
   height="35mm"
   width="120mm">
  <defs
     id="defs2">
    <linearGradient
       id="linearGradient881">
      <stop
         id="stop877"
         offset="0"
         style="stop-color:#ffcc00;stop-opacity:1;" />
      <stop
         style="stop-color:#806600;stop-opacity:1"
         offset="0.09087909"
         id="stop885" />
      <stop
         id="stop887"
         offset="0.52718663"
         style="stop-color:#ffcc00;stop-opacity:1" />
      <stop
         id="stop879"
         offset="1"
         style="stop-color:#aa8800;stop-opacity:1" />
    </linearGradient>
    <linearGradient
       gradientTransform="translate(-2.0410714,0.37797619)"
       gradientUnits="userSpaceOnUse"
       y2="1.2336307"
       x2="62.555061"
       y1="32.416668"
       x1="61.988094"
       id="linearGradient883"
       xlink:href="#linearGradient881" />
    <linearGradient
       gradientTransform="translate(-0.75012279,-0.06535588)"
       gradientUnits="userSpaceOnUse"
       y2="1.2336307"
       x2="62.555061"
       y1="32.416668"
       x1="61.988094"
       id="linearGradient883-7"
       xlink:href="#linearGradient881" />
    <linearGradient
       y2="1.2336307"
       x2="62.555061"
       y1="32.416668"
       x1="61.988094"
       gradientTransform="translate(-0.75012279,-0.06535588)"
       gradientUnits="userSpaceOnUse"
       id="linearGradient972"
       xlink:href="#linearGradient881" />
  </defs>
  <metadata
     id="metadata5">
    <rdf:RDF>
      <cc:Work
         rdf:about="">
        <dc:format>image/svg+xml</dc:format>
        <dc:type
           rdf:resource="http://purl.org/dc/dcmitype/StillImage" />
        <dc:title></dc:title>
      </cc:Work>
    </rdf:RDF>
  </metadata>
  <g
     transform="translate(0,-262)"
     id="layer1">
    <g
       transform="translate(0.40090429,262.85958)"
       id="g970">
      <path
         style="fill:#000000;stroke-width:0.26458335"
         d="m 29.722039,29.950364 c -3.016716,-3.08619 -4.302435,-5.747917 -4.799994,-9.937076 l -0.328885,-2.768996 -1.062853,2.417359 c -0.868622,1.975595 -1.380275,2.731644 -2.79981,4.137151 -2.021544,2.001567 -5.1864,3.969377 -7.96398,4.951754 -1.546548,0.546986 -2.604807,0.717224 -5.0515499,0.812633 -3.553947,0.138581 -4.326332,0.01146 -4.524049,-0.744622 -0.141182,-0.53988 -0.0024,-0.738045 1.004617,-1.43555 0.500616,-0.34671 0.539306,-0.778068 0.717063,-7.994621 0.103347,-4.195475 0.121569,-8.35053 0.0405,-9.233456 -0.135138,-1.4717864 -0.211293,-1.6294374 -0.915503,-1.8952464 -1.248106,-0.471108 -1.009608,-1.246309 0.724786,-2.355787 2.67447,-1.710836 5.3687399,-2.535064 8.7645249,-2.681231 4.633169,-0.199429 8.00177,0.662702 10.220569,2.615769 1.210304,1.065351 1.478997,1.71838 0.932074,2.265302 -0.204251,0.204251 -0.204671,0.577881 -0.0016,1.309688 0.156366,0.5631507 0.284967,1.3513314 0.285777,1.7515134 7.94e-4,0.400182 0.120539,0.727604 0.26606,0.727604 0.14552,0 0.264583,-0.128297 0.264583,-0.285105 0,-0.156808 0.714375,-1.507299 1.5875,-3.0010914 0.873125,-1.493793 1.5875,-2.797192 1.5875,-2.896444 0,-0.09925 -0.297656,-0.293626 -0.661458,-0.431943 -0.762225,-0.289797 -0.925904,-1.429408 -0.242943,-1.691484 0.5462,-0.209598 15.020936,-0.209598 15.567137,0 0.607068,0.232953 0.512971,1.133327 -0.176798,1.691688 -0.566618,0.458673 -0.603731,0.722152 -0.769961,5.4663694 -0.09606,2.741458 -0.185354,7.555625 -0.198438,10.698148 -0.02236,5.369451 0.0077,5.742162 0.4986,6.186434 0.478851,0.433356 0.57486,0.438373 1.152009,0.06021 l 0.629621,-0.412544 0.130836,-7.758264 c 0.07196,-4.267046 0.0744,-8.51103 0.0054,-9.431077 -0.109466,-1.4601554 -0.205277,-1.7031784 -0.753678,-1.9116804 -1.488425,-0.565898 -0.364737,-1.917647 2.841252,-3.417909 2.327378,-1.089112 4.844587,-1.586421 8.057975,-1.591963 3.726993,-0.0064 4.947893,0.406362 6.827133,2.308268 2.07792,2.102989 2.01874,2.326716 -1.28901,4.8732984 -2.10315,1.619177 -3.30855,2.312147 -5.87684,3.378536 -1.776933,0.737854 -3.473574,1.341554 -3.770193,1.341554 -0.521348,0 -0.422305,0.150038 -0.539303,4.459105 l -0.16356,6.023972 c -0.155734,1.489983 -0.130622,1.582497 0.524782,1.933258 0.914448,0.489397 1.171329,1.3281 0.546675,1.784858 -0.545823,0.399116 -4.808424,0.468966 -6.668284,0.10927 -0.627764,-0.121412 -1.193393,-0.11629 -1.272384,0.01151 -0.07822,0.126553 -1.78748,0.230098 -3.798364,0.230098 -2.873433,0 -3.724413,-0.08225 -3.974994,-0.384178 -0.392906,-0.473424 -0.114655,-1.467905 0.410715,-1.467905 0.743667,0 0.952596,-1.511221 1.124839,-8.13623 l 0.173699,-6.681008 -0.718121,2.91e-4 c -0.394965,1.6e-4 -1.908871,0.135694 -3.364233,0.301186 l -2.646114,0.300893 -0.472226,1.352752 c -0.364934,1.045414 -0.470646,2.164269 -0.465283,4.924629 0.0066,3.396686 0.04868,3.676248 0.857994,5.699889 0.468082,1.170409 1.186137,2.65869 1.595678,3.307292 0.409543,0.648602 0.822058,1.384192 0.916702,1.634641 0.179763,0.475702 -0.405805,1.264428 -0.938742,1.264428 -0.165965,0 -1.087334,-0.803672 -2.047486,-1.785938 z M 12.293415,26.014653 c 5.510944,-2.895918 8.436807,-9.895088 6.583086,-15.747877 -0.891972,-2.8162354 -1.935383,-3.6677534 -4.487234,-3.6619904 -2.09877,0.0047 -2.911681,0.373704 -3.493624,1.585688 -0.382254,0.796107 -0.455475,2.1595474 -0.529167,9.8537004 -0.04704,4.911361 -0.0434,8.92972 0.0081,8.929686 0.05148,-3.2e-5 0.914966,-0.431676 1.918862,-0.959207 z M 52.371361,11.842128 c 1.095682,-0.725432 2.344645,-1.8509517 3.007794,-2.7105154 1.090916,-1.41403 1.11811,-1.49428 0.714914,-2.109637 -0.490325,-0.748329 -1.679281,-1.073926 -3.009979,-0.824285 -2.158537,0.404944 -2.983344,1.804108 -2.983344,5.0608064 0,1.100588 0.0893,1.961273 0.198437,1.912635 0.109141,-0.04864 1.04162,-0.64669 2.072178,-1.329004 z M 37.136162,8.2068546 v -1.569031 l -0.826212,0.236955 c -1.31345,0.376692 -3.671705,2.101867 -3.671705,2.6860237 0,0.118295 1.012031,0.215082 2.248958,0.215082 h 2.248959 z M 92.588866,30.530371 c -0.37179,-0.371788 -0.32501,-0.582142 0.48876,-2.19809 1.34536,-2.671524 1.83172,-4.595058 1.85211,-7.325024 0.0168,-2.253792 -0.0408,-2.513517 -0.98041,-4.414891 -0.64094,-1.297041 -1.55867,-2.589361 -2.5637,-3.610121 -1.47405,-1.497108 -3.97307,-3.1983737 -4.70623,-3.2038777 -0.2579,-0.0019 -0.33073,1.9036157 -0.33073,8.6526827 v 8.655165 l 0.7276,0.587457 c 0.60035,0.484714 0.67643,0.67155 0.435,1.068274 -0.24181,0.397357 -0.7076,0.493953 -2.68353,0.556511 -1.80117,0.05703 -2.48438,-0.01775 -2.7698,-0.303183 -0.32879,-0.32879 -0.42031,-0.31256 -0.69215,0.122738 -0.28226,0.451961 -0.66481,0.501623 -3.86401,0.501623 -2.88392,0 -3.62927,-0.07854 -3.96894,-0.418206 -0.46373,-0.46373 -0.33764,-0.801912 0.5664,-1.519227 0.60646,-0.481192 0.60776,-0.49717 0.60776,-7.474479 v -6.992254 h -2.64583 -2.64584 l -0.002,6.945312 -0.002,6.945312 0.86228,0.714042 c 0.71802,0.59458 0.81328,0.793776 0.56938,1.190625 -0.25337,0.41225 -0.75339,0.486886 -3.70417,0.552913 -1.87619,0.04198 -3.67915,0.0099 -4.00657,-0.07119 -0.77937,-0.193125 -0.82791,-1.35087 -0.0668,-1.592448 0.2907,-0.09227 0.61812,-0.487243 0.7276,-0.877726 0.10948,-0.390483 0.19905,-5.334161 0.19905,-10.98595 V 5.7603816 l -0.59531,-0.482055 c -0.78003,-0.631631 -0.78003,-1.532004 0,-1.725293 0.32742,-0.08113 2.13038,-0.113168 4.00657,-0.07119 2.96347,0.06631 3.44971,0.139447 3.70417,0.557145 0.24269,0.398384 0.16164,0.586734 -0.47278,1.098635 -0.69492,0.560725 -0.7776,0.80359 -0.89468,2.628039 l -0.12902,2.0102187 h 2.68063 2.68062 V 8.5173646 c 0,-1.630557 -0.38222,-2.930882 -1.04228,-3.545822 -0.61699,-0.574808 -0.45974,-1.226838 0.34386,-1.425837 0.31138,-0.0771 2.1012,-0.105843 3.97739,-0.06386 2.96347,0.06631 3.44971,0.139447 3.70417,0.557145 0.24249,0.398055 0.16258,0.585987 -0.46426,1.091841 -0.51315,0.41411 -0.82919,0.983933 -0.98066,1.768144 -0.12293,0.636414 -0.22869,5.5189704 -0.23503,10.8501244 l -0.0115,9.693008 0.66419,0.435189 c 0.69267,0.453861 0.70273,0.450657 1.85853,-0.591666 0.31267,-0.281969 0.38785,-1.254792 0.38851,-5.027084 5.3e-4,-2.5726 0.0787,-6.731283 0.17394,-9.241517 l 0.17312,-4.5640624 h -0.65253 c -0.3589,0 -0.87894,-0.165551 -1.15566,-0.367891 -0.42014,-0.307213 -0.45464,-0.474276 -0.20922,-1.012915 0.48136,-1.056465 2.93387,-3.856607 3.54875,-4.051762 1.17118,-0.371718 6.4646,2.696845 9.29943,5.390822 l 0.99219,0.942889 v -1.595076 c 0,-1.359317 -0.0978,-1.686923 -0.66146,-2.216484 -0.72044,-0.676823 -0.84015,-1.302975 -0.34395,-1.799167 0.48148,-0.481483 4.81918,-0.426173 5.228197,0.06667 0.449157,0.5412 0.24292,1.290218 -0.437737,1.589793 -0.31761,0.139791 -0.64271,0.496978 -0.72244,0.79375 -0.0797,0.296771 -0.14659,3.8245234 -0.14858,7.8394484 -0.003,6.361158 -0.0699,7.559014 -0.51904,9.315152 -0.62571,2.446535 -1.65087,4.602159 -2.86103,6.015958 -1.20707,1.410181 -1.76264,1.693169 -2.28959,1.16622 z m 19.292094,-0.488792 c -7.53112,-1.86042 -12.911554,-9.314738 -12.515954,-17.340222 0.0953,-1.933537 0.268527,-2.618312 1.186694,-4.6912244 1.07293,-2.422338 1.07389,-2.42751 0.4791,-2.576793 -0.73858,-0.185372 -1.00986,-1.08984 -0.48447,-1.615234 0.32712,-0.327121 1.58577,-0.392893 7.58322,-0.396272 3.95505,-0.0022 7.353,-0.106698 7.55101,-0.232154 0.70823,-0.448725 1.35978,-0.02085 1.35978,0.892974 0,0.902291 -1.58007,4.344349 -2.24917,4.899658 -0.56453,0.468518 -1.16023,0.136696 -1.58662,-0.883801 -0.49648,-1.188251 -1.44135,-1.762209 -2.90102,-1.762209 -0.99355,0 -1.36943,0.154565 -2.19212,0.901407 -0.54612,0.495774 -1.20804,1.26968 -1.47093,1.719792 l -0.47798,0.8183837 h 2.94277 c 4.26016,0 4.69765,0.3880317 3.01774,2.6765317 -0.99265,1.352266 -1.68204,1.609821 -2.39651,0.895344 -0.4276,-0.427597 -1.42082,-0.49508 -3.36486,-0.22862 l -1.22755,0.168255 v 1.760531 c 0,5.437589 3.14242,10.564462 7.81836,12.755681 2.29693,1.076377 2.73563,1.542983 2.07337,2.205246 -0.47451,0.474506 -1.32085,0.483314 -3.14486,0.03273 z"
         id="path21" />
      <path
         style="fill:url(#linearGradient972);fill-opacity:1;stroke-width:0.26458341"
         d="m 28.593937,28.75108 c -3.016714,-3.086191 -4.302433,-5.747919 -4.799992,-9.937079 l -0.328885,-2.768995 -1.062853,2.41736 c -0.868623,1.975594 -1.380276,2.731643 -2.799811,4.137151 -2.021545,2.001567 -5.1864,3.969377 -7.96398,4.951754 -1.546547,0.546985 -2.6048058,0.717225 -5.0515488,0.812633 -3.553947,0.138581 -4.326332,0.01146 -4.524049,-0.744622 -0.141182,-0.53988 -0.0024,-0.738045 1.004617,-1.435551 0.500616,-0.34671 0.539306,-0.778067 0.717063,-7.99462 0.103347,-4.195477 0.121569,-8.3505299 0.0405,-9.2334559 -0.135138,-1.471787 -0.211293,-1.629437 -0.915503,-1.895247 -1.248106,-0.471107 -1.009608,-1.246309 0.724786,-2.355787 2.67447,-1.710836 5.36874,-2.535064 8.7645238,-2.681231 4.633169,-0.199429 8.001769,0.662702 10.220569,2.615769 1.210305,1.065351 1.478997,1.71838 0.932075,2.265302 -0.204251,0.204252 -0.204671,0.577881 -0.0016,1.309688 0.156366,0.563151 0.284967,1.351332 0.285777,1.751514 7.94e-4,0.4001819 0.120539,0.7276039 0.26606,0.7276039 0.14552,0 0.264583,-0.128297 0.264583,-0.285105 0,-0.156808 0.714375,-1.5072989 1.5875,-3.0010919 0.873125,-1.493793 1.5875,-2.797192 1.5875,-2.896444 0,-0.09925 -0.297656,-0.293626 -0.661458,-0.431943 -0.762213,-0.289797 -0.925892,-1.429408 -0.242931,-1.691484 0.5462,-0.209598 15.02094,-0.209598 15.567138,0 0.607067,0.232953 0.512973,1.133327 -0.176795,1.691688 -0.566618,0.458674 -0.603731,0.722152 -0.769961,5.46637 -0.09606,2.7414559 -0.185354,7.5556229 -0.19844,10.6981479 -0.02236,5.369451 0.0077,5.742162 0.498602,6.186434 0.478848,0.433356 0.57486,0.438372 1.152008,0.06021 l 0.629621,-0.412544 0.130834,-7.758264 c 0.07196,-4.267047 0.0744,-8.5110299 0.0054,-9.4310769 -0.109457,-1.460155 -0.205268,-1.703179 -0.75367,-1.911681 -1.488423,-0.565898 -0.364736,-1.917646 2.841252,-3.417909 2.327379,-1.089112 4.844587,-1.586421 8.057976,-1.591963 3.726989,-0.0064 4.947893,0.406362 6.827133,2.308268 2.077919,2.102989 2.01874,2.326716 -1.28901,4.873299 -2.103152,1.6191769 -3.308554,2.3121469 -5.87684,3.3785339 -1.776937,0.737856 -3.473575,1.341555 -3.770194,1.341555 -0.521348,0 -0.422304,0.150037 -0.539303,4.459106 l -0.16356,6.023972 c -0.155733,1.489983 -0.130622,1.582497 0.52478,1.933258 0.914451,0.489397 1.171329,1.3281 0.546674,1.784858 -0.545822,0.399115 -4.808421,0.468965 -6.668283,0.10927 -0.627761,-0.121412 -1.193389,-0.11629 -1.272383,0.01151 -0.07822,0.126553 -1.78748,0.230097 -3.798361,0.230097 -2.873433,0 -3.724415,-0.08225 -3.974994,-0.384177 -0.392909,-0.473424 -0.11466,-1.467905 0.41071,-1.467905 0.743667,0 0.952598,-1.511221 1.124839,-8.13623 l 0.173699,-6.681008 -0.718119,2.91e-4 c -0.394962,1.6e-4 -1.908868,0.135694 -3.36423,0.301186 l -2.646119,0.300893 -0.472223,1.352752 c -0.364936,1.045414 -0.470647,2.164269 -0.465285,4.924629 0.0066,3.396686 0.04868,3.676248 0.857998,5.699889 0.468077,1.170409 1.186135,2.65869 1.595673,3.307292 0.409546,0.648602 0.822063,1.384194 0.916702,1.63464 0.179763,0.475703 -0.405802,1.264428 -0.938739,1.264428 -0.165968,0 -1.087337,-0.803672 -2.047486,-1.785937 z M 11.165314,24.815368 C 16.676257,21.91945 19.60212,14.92028 17.7484,9.0674911 c -0.891972,-2.816236 -1.935384,-3.667754 -4.487235,-3.661991 -2.098769,0.0047 -2.91168,0.373704 -3.4936218,1.585688 -0.382254,0.796108 -0.455475,2.159548 -0.529167,9.8537009 -0.04704,4.911361 -0.0434,8.92972 0.0081,8.929686 0.05148,-3.2e-5 0.9149658,-0.431676 1.9188608,-0.959207 z M 51.243262,10.642843 c 1.095682,-0.7254319 2.344645,-1.8509519 3.007794,-2.7105159 1.090914,-1.414029 1.118108,-1.494279 0.714912,-2.109637 -0.490323,-0.748329 -1.679279,-1.073926 -3.009977,-0.824285 -2.158537,0.404944 -2.983346,1.804108 -2.983346,5.0608069 0,1.100588 0.0893,1.961272 0.198435,1.912633 0.109143,-0.04864 1.041622,-0.646688 2.072182,-1.329002 z M 36.00806,7.0075701 v -1.569032 l -0.826209,0.236955 c -1.31345,0.376693 -3.671705,2.101867 -3.671705,2.686025 0,0.118295 1.012031,0.215081 2.248955,0.215081 H 36.00806 Z M 91.46077,29.331086 c -0.37179,-0.37179 -0.325012,-0.582141 0.488759,-2.19809 1.345362,-2.671524 1.831721,-4.595059 1.85211,-7.325024 0.0168,-2.253793 -0.0408,-2.513517 -0.980411,-4.414893 C 92.180288,14.096038 91.26256,12.80372 90.25753,11.78296 88.78348,10.285852 86.284459,8.5845861 85.551298,8.5790821 c -0.257899,-0.0019 -0.330729,1.9036159 -0.330729,8.6526809 v 8.655167 l 0.727599,0.587457 c 0.60035,0.484714 0.676431,0.67155 0.435002,1.068274 -0.241811,0.397357 -0.707602,0.493953 -2.683532,0.556511 -1.801169,0.05703 -2.484379,-0.01775 -2.769798,-0.303183 -0.32879,-0.32879 -0.420312,-0.31256 -0.69215,0.122738 -0.28226,0.451961 -0.664811,0.501624 -3.864015,0.501624 -2.883918,0 -3.629268,-0.07854 -3.968938,-0.418207 -0.463732,-0.463731 -0.33764,-0.801912 0.566399,-1.519228 0.60646,-0.481191 0.607761,-0.497169 0.607761,-7.474478 v -6.992254 h -2.64583 -2.645844 l -0.0021,6.94531 -0.0021,6.945314 0.86228,0.714042 c 0.718018,0.594579 0.813279,0.793776 0.569378,1.190625 -0.25337,0.41225 -0.753388,0.486887 -3.704169,0.552914 -1.87619,0.04198 -3.67915,0.0099 -4.00657,-0.07119 -0.77937,-0.193125 -0.82791,-1.35087 -0.0668,-1.592448 0.2907,-0.09227 0.61812,-0.487244 0.727599,-0.877726 0.109479,-0.390483 0.199051,-5.334162 0.199051,-10.985952 V 4.5610971 l -0.595374,-0.482056 c -0.780032,-0.631631 -0.780032,-1.532004 0,-1.725293 0.327419,-0.08113 2.13038,-0.113168 4.006569,-0.07119 2.963468,0.06631 3.449706,0.139447 3.704169,0.557145 0.24269,0.398384 0.16164,0.586734 -0.472781,1.098635 -0.694917,0.560725 -0.7776,0.80359 -0.894678,2.628039 l -0.129021,2.01022 h 2.680628 2.680621 v -1.258518 c 0,-1.630556 -0.38222,-2.930882 -1.042278,-3.545822 -0.61699,-0.574808 -0.45974,-1.226838 0.34386,-1.425837 0.31138,-0.0771 2.101199,-0.105843 3.977389,-0.06386 2.963468,0.06631 3.449709,0.139447 3.704169,0.557145 0.242491,0.398055 0.162579,0.585987 -0.464259,1.091841 -0.513151,0.41411 -0.829191,0.983933 -0.980662,1.768144 -0.122928,0.636414 -0.22869,5.5189709 -0.23503,10.8501229 l -0.01151,9.693009 0.664189,0.43519 c 0.692671,0.45386 0.702731,0.450657 1.858531,-0.591666 0.312669,-0.281969 0.38785,-1.254793 0.388509,-5.027084 5.29e-4,-2.5726 0.0787,-6.731283 0.17394,-9.241519 l 0.173119,-4.5640599 h -0.652528 c -0.3589,0 -0.878941,-0.165552 -1.155661,-0.367892 -0.420139,-0.307213 -0.454639,-0.474276 -0.209219,-1.012915 0.481655,-1.056464 2.934163,-3.856607 3.549044,-4.051762 1.171181,-0.371718 6.464599,2.696845 9.29943,5.390822 l 0.99219,0.942889 v -1.595075 c 0,-1.359317 -0.0978,-1.686923 -0.661459,-2.216485 -0.720441,-0.676823 -0.84015,-1.302975 -0.34395,-1.799167 0.481478,-0.481483 4.819179,-0.426173 5.228198,0.06667 0.449152,0.5412 0.242922,1.290218 -0.437739,1.589793 -0.317609,0.139791 -0.64271,0.496979 -0.72244,0.793751 -0.0797,0.29677 -0.14659,3.824523 -0.148579,7.8394479 -0.003,6.361158 -0.0699,7.559014 -0.519041,9.315152 -0.625711,2.446534 -1.650871,4.602159 -2.86103,6.015958 -1.207069,1.410181 -1.762641,1.693168 -2.28959,1.166219 z m 19.29207,-0.488794 c -7.53112,-1.860418 -12.911532,-9.314736 -12.51593,-17.34022 0.0953,-1.9335369 0.268529,-2.6183119 1.186688,-4.6912239 1.072912,-2.422339 1.073872,-2.427511 0.479097,-2.576794 -0.738576,-0.185372 -1.009853,-1.08984 -0.484468,-1.615234 0.327121,-0.327121 1.585753,-0.392893 7.583203,-0.396272 3.95505,-0.0022 7.353,-0.106698 7.55101,-0.232154 0.70823,-0.448725 1.35978,-0.02085 1.35978,0.892974 0,0.902291 -1.58007,4.344349 -2.24917,4.899658 -0.56453,0.468519 -1.16023,0.136696 -1.58662,-0.8838 -0.49648,-1.188252 -1.44135,-1.76221 -2.90102,-1.76221 -0.99355,0 -1.36943,0.154565 -2.19212,0.901408 -0.54612,0.495773 -1.20804,1.269679 -1.47093,1.719791 l -0.47798,0.818384 h 2.94277 c 4.26016,0 4.69765,0.388032 3.01774,2.6765319 -0.99265,1.352266 -1.68204,1.609821 -2.39651,0.895342 -0.4276,-0.427595 -1.42082,-0.495078 -3.36486,-0.228618 l -1.22755,0.168253 v 1.760533 c 0,5.437587 3.14242,10.564462 7.81836,12.755681 2.29693,1.076377 2.73563,1.542983 2.07337,2.205247 -0.47451,0.474503 -1.32085,0.483311 -3.14486,0.03273 z"
         id="path21-4-9" />
    </g>
  </g>
</svg>
